<?xml version="1.0" encoding="iso-8859-1"?>
<!-- Generator: Adobe Illustrator 19.0.0, SVG Export Plug-In . SVG Version: 6.00 Build 0)  -->
<svg xmlns="http://www.w3.org/2000/svg" xmlns:xlink="http://www.w3.org/1999/xlink" version="1.1" id="Layer_1" x="0px" y="0px" viewBox="0 0 502 502" style="enable-background:new 0 0 502 502;" xml:space="preserve" width="512" height="512">
<g>
	<g>
		<circle style="fill:#FBB03B;" cx="251" cy="251" r="241"/>
		<path d="M251,502c-67.045,0-130.076-26.108-177.483-73.516C26.108,381.076,0,318.044,0,251S26.108,120.924,73.517,73.516    C120.924,26.108,183.955,0,251,0s130.076,26.108,177.483,73.516C475.892,120.924,502,183.956,502,251    s-26.108,130.076-73.517,177.484C381.076,475.892,318.045,502,251,502z M251,20C123.626,20,20,123.626,20,251s103.626,231,231,231    s231-103.626,231-231S378.374,20,251,20z"/>
	</g>
	<g>
		<path style="fill:#F2F2F2;" d="M197.75,136.75c1.506,0,2.991,0.142,4.455,0.404C194.723,118.945,182.197,107,168,107    c-22.92,0-41.5,31.116-41.5,69.5c0,35.862,16.221,65.372,37.045,69.096c-4.598-11.188-7.295-24.737-7.295-39.346    C156.25,167.866,174.83,136.75,197.75,136.75z"/>
		<g>
			<path style="fill:#50A5DC;" d="M209.5,176.5c0-14.609-2.697-28.158-7.295-39.346c-1.464-0.262-2.95-0.404-4.455-0.404     c-22.92,0-41.5,31.116-41.5,69.5c0,14.609,2.697,28.158,7.295,39.346c1.464,0.262,2.95,0.404,4.455,0.404     C190.92,246,209.5,214.884,209.5,176.5z"/>
			<path d="M211.454,133.353C202.101,110.59,185.855,97,168,97c-28.879,0-51.5,34.92-51.5,79.5c0,41.049,19.045,74.248,45.285,78.94     c2.078,0.372,4.169,0.56,6.215,0.56c28.879,0,51.5-34.92,51.5-79.5C219.5,161.082,216.718,146.162,211.454,133.353z M136.5,176.5     c0-35.064,16.601-59.5,31.5-59.5c6.356,0,12.825,4.268,18.223,11.669l0.015,0.019c-23.155,7.873-39.987,39.114-39.987,77.562     c0,4.664,0.259,9.28,0.76,13.808l-0.006-0.007C140.838,209.579,136.5,194.498,136.5,176.5z M170.604,235.756     c-2.858-9-4.354-19.074-4.354-29.506c0-33.031,14.733-56.631,28.896-59.256c2.858,9,4.354,19.074,4.354,29.506     C199.5,209.531,184.767,233.131,170.604,235.756z"/>
		</g>
		<path style="fill:#F2F2F2;" d="M363.25,136.75c1.506,0,2.991,0.142,4.455,0.404C360.223,118.945,347.697,107,333.5,107    c-22.92,0-41.5,31.116-41.5,69.5c0,35.862,16.221,65.372,37.045,69.096c-4.598-11.188-7.295-24.737-7.295-39.346    C321.75,167.866,340.33,136.75,363.25,136.75z"/>
		<g>
			<path style="fill:#50A5DC;" d="M375,176.5c0-14.609-2.697-28.158-7.295-39.346c-1.464-0.262-2.95-0.404-4.455-0.404     c-22.92,0-41.5,31.116-41.5,69.5c0,14.609,2.697,28.158,7.295,39.346c1.464,0.262,2.95,0.404,4.455,0.404     C356.42,246,375,214.884,375,176.5z"/>
			<path d="M376.954,133.353C367.601,110.59,351.355,97,333.5,97c-28.879,0-51.5,34.92-51.5,79.5     c0,41.049,19.045,74.248,45.285,78.94c2.078,0.372,4.169,0.56,6.215,0.56c28.879,0,51.5-34.92,51.5-79.5     C385,161.082,382.218,146.162,376.954,133.353z M302,176.5c0-35.064,16.601-59.5,31.5-59.5c6.356,0,12.825,4.268,18.223,11.669     l0.015,0.019c-23.155,7.873-39.987,39.114-39.987,77.562c0,4.664,0.259,9.28,0.76,13.808l-0.006-0.007     C306.338,209.579,302,194.498,302,176.5z M336.104,235.756c-2.858-9-4.354-19.074-4.354-29.506     c0-33.031,14.733-56.631,28.896-59.256c2.858,9,4.354,19.074,4.354,29.506C365,209.531,350.267,233.131,336.104,235.756z"/>
		</g>
	</g>
	<g>
		<path d="M344.009,375.982c-3.517,0-6.928-1.859-8.754-5.152c-2.679-4.83-0.935-10.917,3.896-13.595    c5.702-3.162,10.964-6.644,15.639-10.35c4.326-3.432,10.618-2.703,14.048,1.624c3.432,4.328,2.704,10.618-1.624,14.049    c-5.529,4.383-11.707,8.478-18.363,12.168C347.313,375.577,345.649,375.982,344.009,375.982z"/>
	</g>
	<path d="M374.193,324.938c-0.63,1.31-0.993,2.772-0.993,4.322c0,5.523,4.478,10,10,10h25.45c5.522,0,10-4.477,10-10   s-4.478-10-10-10h-10.589c1.647-5.819,2.485-11.754,2.485-17.76c0-5.523-4.478-10-10-10s-10,4.477-10,10   c0,7.806-2.059,15.531-6.117,22.959L374.193,324.938z"/>
	<path d="M318.62,377.458c-1.507-5.313-7.035-8.398-12.35-6.891c-17.384,4.932-36,7.433-55.332,7.433   c-28.364,0-55.354-5.42-78.05-15.674c-21.187-9.573-37.323-23.018-45.436-37.859c0-0.001-0.001-0.002-0.001-0.003   c-4.061-7.429-6.119-15.155-6.119-22.964c0-5.523-4.478-10-10-10s-10,4.477-10,10c0,6.007,0.838,11.942,2.484,17.76H92.722   c-5.522,0-10,4.477-10,10s4.478,10,10,10h20.325c23.03,35.35,77.366,58.74,137.892,58.74c21.179,0,41.632-2.756,60.791-8.192   C317.043,388.3,320.128,382.771,318.62,377.458z"/>
</g>















</svg>
